# xmcd
#
# Track frame offsets:
#	187
#	13155
#	25750
#	39317
#	52025
#	64902
#	80432
#	92102
#	104410
#	117462
#	127445
#	142562
#	155390
#	168487
#	180770
#	191340
#	205407
#	215650
#	228135
#	244882
#
# Disc length: 3442 seconds
#
# Revision: 2
# Processed by: cddbd v1.5.2PL0 Copyright (c) Steve Scherf et al.
# Submitted via: EZCDAudioConverter 6.0.2.1
#
DISCID=130d7014
DTITLE=Merle Haggard - Merle Haggard Collectors Series
DYEAR=1990
DGENRE=Country
TTITLE0=Swinging Doors
TTITLE1=The Bottle Let Me Down
TTITLE2=I'm A Lonesome Fugitive
TTITLE3=Sing Me Back Home
TTITLE4=I Take A Lot Of Pride In What I Am
TTITLE5=Hungry Eyes
TTITLE6=Workin' Man Blues
TTITLE7=Okie From Muskogee
TTITLE8=The Fightin' Side Of Me
TTITLE9=Soldier's Last Letter
TTITLE10=Daddy Frank (The Guitar Man)
TTITLE11=I Wonder If They Ever Think Of Me
TTITLE12=The Emptiest Arms In The World
TTITLE13=Things Aren't Funny Anymore
TTITLE14=Old Man From The Mountain
TTITLE15=Always Wanting You
TTITLE16=Movin' On
TTITLE17=The Roots Of My Raising
TTITLE18=Here Comes The Freedom Train
TTITLE19=Cherokee Maiden
EXTD=
EXTT0=
EXTT1=
EXTT2=
EXTT3=
EXTT4=
EXTT5=
EXTT6=
EXTT7=
EXTT8=
EXTT9=
EXTT10=
EXTT11=
EXTT12=
EXTT13=
EXTT14=
EXTT15=
EXTT16=
EXTT17=
EXTT18=
EXTT19=
PLAYORDER=
